<svg width="1600" height="980" viewBox="0 0 1600 980" fill="none" xmlns="http://www.w3.org/2000/svg">
<g filter="url(#filter0_f_702_263)">
<path d="M-176.219 337.047C-346.219 543.829 -324.219 790.829 -517.61 741.329C-744.623 600.866 -591.693 315.697 -577.355 207.821C-559.434 72.9758 -660.984 -140.529 -517.61 -247.281C-374.237 -354.033 -381.988 -683.49 -214.719 -526.171C-47.4497 -368.852 295.728 -340.795 545.745 -50.632C613.781 28.3292 874.303 171.709 778.721 280.869C695.086 376.384 564.281 365.421 424.781 280.869C221.781 157.829 16.8425 102.214 -176.219 337.047Z" fill="url(#paint0_angular_702_263)" fill-opacity="0.8"/>
</g>
<g filter="url(#filter1_f_702_263)">
<ellipse cx="1115.59" cy="864.5" rx="272.587" ry="220.5" fill="url(#paint1_angular_702_263)"/>
</g>
<g filter="url(#filter2_f_702_263)">
<ellipse cx="744.157" cy="448" rx="517.976" ry="419" fill="#8F69DE" fill-opacity="0.6"/>
</g>
<defs>
<filter id="filter0_f_702_263" x="-867.73" y="-794.73" width="1894.01" height="1769.2" filterUnits="userSpaceOnUse" color-interpolation-filters="sRGB">
<feFlood flood-opacity="0" result="BackgroundImageFix"/>
<feBlend mode="normal" in="SourceGraphic" in2="BackgroundImageFix" result="shape"/>
<feGaussianBlur stdDeviation="113.365" result="effect1_foregroundBlur_702_263"/>
</filter>
<filter id="filter1_f_702_263" x="443" y="244" width="1345.17" height="1241" filterUnits="userSpaceOnUse" color-interpolation-filters="sRGB">
<feFlood flood-opacity="0" result="BackgroundImageFix"/>
<feBlend mode="normal" in="SourceGraphic" in2="BackgroundImageFix" result="shape"/>
<feGaussianBlur stdDeviation="200" result="effect1_foregroundBlur_702_263"/>
</filter>
<filter id="filter2_f_702_263" x="-343.887" y="-541.068" width="2176.09" height="1978.14" filterUnits="userSpaceOnUse" color-interpolation-filters="sRGB">
<feFlood flood-opacity="0" result="BackgroundImageFix"/>
<feBlend mode="normal" in="SourceGraphic" in2="BackgroundImageFix" result="shape"/>
<feGaussianBlur stdDeviation="285.034" result="effect1_foregroundBlur_702_263"/>
</filter>
<radialGradient id="paint0_angular_702_263" cx="0" cy="0" r="1" gradientUnits="userSpaceOnUse" gradientTransform="translate(3.88413 247.795) rotate(-109.063) scale(557.931 835.137)">
<stop offset="0.0785972" stop-color="#561BBE"/>
<stop offset="0.438386" stop-color="#70E6FB"/>
<stop offset="0.613412" stop-color="#FBF8B3"/>
<stop offset="0.847376" stop-color="#FA8792"/>
</radialGradient>
<radialGradient id="paint1_angular_702_263" cx="0" cy="0" r="1" gradientUnits="userSpaceOnUse" gradientTransform="translate(1087.06 811.568) rotate(111.314) scale(189.725 311.522)">
<stop offset="0.0785972" stop-color="#561BBE"/>
<stop offset="0.367669" stop-color="white"/>
<stop offset="0.571078" stop-color="#6842B8"/>
<stop offset="0.847376" stop-color="#FA8792"/>
</radialGradient>
</defs>
</svg>
